HIERARCHY
ROOT Hips
{
	OFFSET 0.000000 0.000000 0.000000
	CHANNELS 6 Xposition Yposition Zposition Zrotation Yrotation Xrotation 
	JOINT LeftUpLeg_virtual
	{
		OFFSET 0.000000 0.000000 0.000000
		CHANNELS 3 Zrotation Yrotation Xrotation
		JOINT LeftUpLeg
		{
			OFFSET 8.479694 -4.795517 -0.379053
			CHANNELS 3 Zrotation Yrotation Xrotation
			JOINT LeftLeg
			{
				OFFSET 0.485052 -32.551468 0.112863
				CHANNELS 3 Zrotation Yrotation Xrotation
				JOINT LeftFoot
				{
					OFFSET 0.438033 -32.635670 -3.012641
					CHANNELS 3 Zrotation Yrotation Xrotation
					JOINT LeftToeBase
					{
						OFFSET 0.970169 -13.225353 11.864223
						CHANNELS 3 Zrotation Yrotation Xrotation
						End Site
						{
							OFFSET 0.000000 0.000000 0.000000
						}
					}
				}
			}
		}
	}
	JOINT RightUpLeg_virtual
	{
		OFFSET 0.000000 0.000000 0.000000
		CHANNELS 3 Zrotation Yrotation Xrotation
		JOINT RightUpLeg
		{
			OFFSET -8.479694 -4.795517 -0.379053
			CHANNELS 3 Zrotation Yrotation Xrotation
			JOINT RightLeg
			{
				OFFSET -0.484100 -32.551483 0.112903
				CHANNELS 3 Zrotation Yrotation Xrotation
				JOINT RightFoot
				{
					OFFSET -0.438985 -32.635651 -3.012681
					CHANNELS 3 Zrotation Yrotation Xrotation
					JOINT RightToeBase
					{
						OFFSET -0.970169 -13.225354 11.864223
						CHANNELS 3 Zrotation Yrotation Xrotation
						End Site
						{
							OFFSET 0.000000 0.000000 0.000000
						}
					}
				}
			}
		}
	}
	JOINT Spine_virtual
	{
		OFFSET 0.000000 0.000000 0.000000
		CHANNELS 3 Zrotation Yrotation Xrotation
		JOINT Spine
		{
			OFFSET 0.000000 7.722015 1.166203
			CHANNELS 3 Zrotation Yrotation Xrotation
			JOINT Spine1
			{
				OFFSET 0.000000 12.024086 0.248766
				CHANNELS 3 Zrotation Yrotation Xrotation
				JOINT Spine2
				{
					OFFSET -0.000000 11.503036 -0.491240
					CHANNELS 3 Zrotation Yrotation Xrotation
					JOINT Neck_virtual
					{
						OFFSET 0.000000 0.000000 0.000000
						CHANNELS 3 Zrotation Yrotation Xrotation
						JOINT Neck
						{
							OFFSET 0.000000 18.430687 -3.123054
							CHANNELS 3 Zrotation Yrotation Xrotation
							JOINT Head
							{
								OFFSET -0.000000 9.051071 1.034021
								CHANNELS 3 Zrotation Yrotation Xrotation
								End Site
								{
									OFFSET 0.000000 0.000000 0.000000
								}
							}
						}
					}
					JOINT LeftShoulder_virtual
					{
						OFFSET 0.000000 0.000000 0.000000
						CHANNELS 3 Zrotation Yrotation Xrotation
						JOINT LeftShoulder
						{
							OFFSET 6.197824 13.665230 -4.064723
							CHANNELS 3 Zrotation Yrotation Xrotation
							JOINT LeftArm
							{
								OFFSET 7.778132 -0.187073 -1.709282
								CHANNELS 3 Zrotation Yrotation Xrotation
								JOINT LeftForeArm
								{
									OFFSET 21.954697 0.000000 -2.041093
									CHANNELS 3 Zrotation Yrotation Xrotation
									JOINT LeftHand
									{
										OFFSET 22.992908 0.000000 -0.870901
										CHANNELS 3 Zrotation Yrotation Xrotation
										End Site
										{
											OFFSET 0.000000 0.000000 0.000000
										}
									}
								}
							}
						}
					}
					JOINT RightShoulder_virtual
					{
						OFFSET 0.000000 0.000000 0.000000
						CHANNELS 3 Zrotation Yrotation Xrotation
						JOINT RightShoulder
						{
							OFFSET -6.197824 13.665230 -4.064723
							CHANNELS 3 Zrotation Yrotation Xrotation
							JOINT RightArm
							{
								OFFSET -7.778132 -0.187073 -1.709282
								CHANNELS 3 Zrotation Yrotation Xrotation
								JOINT RightForeArm
								{
									OFFSET -21.954697 0.000000 -2.041093
									CHANNELS 3 Zrotation Yrotation Xrotation
									JOINT RightHand
									{
										OFFSET -22.992908 0.000000 -0.870901
										CHANNELS 3 Zrotation Yrotation Xrotation
										End Site
										{
											OFFSET 0.000000 0.000000 0.000000
										}
									}
								}
							}
						}
					}
				}
			}
		}
	}
}
MOTION
Frames: 4
Frame Time: 0.033333
1.331679 81.744194 30.991653 179.913835 0.265899 -179.868715 -4.297336 -1.511950 10.829753 0.892968 1.325077 -21.783970 7.560855 4.009535 27.294249 -0.593957 -7.309195 -8.518104 0.000000 0.000000 0.000000 -0.282570 -1.400856 10.383492 -3.943786 -4.760778 -21.118585 -0.499471 3.607681 28.550348 8.526362 5.020843 -8.092606 0.000000 0.000000 0.000000 2.840056 1.409592 -1.838127 -5.527160 2.368544 0.113088 -0.792772 -2.651821 4.193895 -0.010376 0.009866 0.068502 -1.208038 -1.458134 5.319302 1.074807 -0.554038 -14.080854 0.000000 0.000000 0.000000 0.289495 -0.633953 2.658981 12.680183 7.923919 -2.650577 6.323358 -3.691800 -51.138620 -2.126560 -34.313754 -6.586507 0.000000 0.000000 0.000000 -3.596780 0.573211 2.246831 5.947174 -16.454373 -5.003824 3.679368 -2.031008 -44.863466 0.028087 33.257352 -2.878870 0.000000 0.000000 0.000000 
1.334260 81.740753 30.998268 179.944435 0.344832 -179.778133 -4.297134 -1.551469 10.958349 0.913430 1.270874 -21.646912 7.693881 3.672407 27.479004 -0.768115 -7.472607 -8.245472 0.000000 0.000000 0.000000 -0.244773 -1.468038 10.428245 -3.813226 -5.054828 -21.069025 -0.449939 3.175033 28.705431 8.346378 4.837458 -7.963501 0.000000 0.000000 0.000000 2.849616 1.450093 -1.849342 -5.514028 2.412030 0.057912 -0.779512 -2.594816 4.249538 0.005688 0.068926 0.039646 -1.215278 -1.452607 5.294840 1.074871 -0.431038 -14.172136 0.000000 0.000000 0.000000 0.264213 -0.662142 2.725912 12.648278 7.860525 -2.658527 6.322504 -3.743481 -51.192141 -2.075883 -34.298321 -6.601613 0.000000 0.000000 0.000000 -3.633119 0.521248 2.231296 5.971087 -16.470865 -4.909003 3.681292 -2.063809 -44.772474 -0.212422 33.274858 -3.153545 0.000000 0.000000 0.000000 
1.336200 81.744820 31.002562 179.929395 0.387334 -179.789895 -4.310212 -1.541569 10.984891 0.915501 1.272238 -21.656013 7.691630 3.716073 27.480452 -0.758250 -7.468353 -8.236232 0.000000 0.000000 0.000000 -0.250790 -1.452293 10.438170 -3.822243 -5.045533 -21.082552 -0.454399 3.201288 28.699635 8.355097 4.848966 -7.949742 0.000000 0.000000 0.000000 2.838150 1.447151 -1.824963 -5.531139 2.419473 0.084688 -0.781737 -2.590132 4.173675 0.001482 0.074525 0.030194 -1.218949 -1.478664 5.374196 1.069175 -0.489894 -14.133615 0.000000 0.000000 0.000000 0.269162 -0.682025 2.789553 12.632654 7.826183 -2.600368 6.200365 -3.803589 -51.133573 -2.065820 -34.314816 -6.616537 0.000000 0.000000 0.000000 -3.637893 0.550824 2.290035 5.953618 -16.450845 -4.918616 3.712494 -2.069534 -44.808367 -0.087562 33.291346 -3.032048 0.000000 0.000000 0.000000 
1.334179 81.747986 31.001722 -179.980498 0.313762 -179.808801 -4.254883 -1.558031 11.002138 0.937763 1.309744 -21.674536 7.651211 3.584399 27.494035 -0.739206 -7.451968 -8.245477 0.000000 0.000000 0.000000 -0.185597 -1.511702 10.473671 -3.782530 -5.077963 -21.067187 -0.468942 3.198970 28.661974 8.327483 4.832730 -7.935728 0.000000 0.000000 0.000000 2.893218 1.402785 -1.804761 -5.500288 2.393040 0.090981 -0.743742 -2.631991 4.178089 0.027086 0.033808 0.080294 -1.243022 -1.486917 5.330334 1.053910 -0.496589 -14.058014 0.000000 0.000000 0.000000 0.261710 -0.679808 2.722597 12.591057 7.829154 -2.729934 6.040994 -3.866498 -50.967107 -2.126600 -34.354424 -6.621189 0.000000 0.000000 0.000000 -3.666377 0.542525 2.293325 5.915246 -16.338492 -4.796898 3.745571 -2.063249 -44.798572 -0.241316 33.291022 -3.204326 0.000000 0.000000 0.000000 
